<mxfile host="app.diagrams.net" modified="2023-10-04T07:30:03.216Z" agent="Mozilla/5.0 (Windows NT 10.0; Win64; x64) AppleWebKit/537.36 (KHTML, like Gecko) Chrome/117.0.0.0 Safari/537.36 Edg/117.0.2045.47" etag="d-Q-QC_7_oAvI088Lath" version="22.0.2" type="github">
  <diagram name="Page-1" id="ZOz0V-tBQhRUc9CVFgcs">
    <mxGraphModel dx="1852" dy="569" grid="1" gridSize="10" guides="1" tooltips="1" connect="1" arrows="1" fold="1" page="1" pageScale="1" pageWidth="850" pageHeight="1100" math="0" shadow="0">
      <root>
        <mxCell id="0" />
        <mxCell id="1" parent="0" />
        <mxCell id="Bpo2pXbRXyXROc6AZWLJ-13" value="" style="rounded=0;whiteSpace=wrap;html=1;" parent="1" vertex="1">
          <mxGeometry x="-640" y="50" width="170" height="310" as="geometry" />
        </mxCell>
        <mxCell id="reax18zM3HUMYN1Fc1aP-3" value="" style="edgeStyle=orthogonalEdgeStyle;rounded=0;orthogonalLoop=1;jettySize=auto;html=1;" parent="1" source="reax18zM3HUMYN1Fc1aP-1" target="reax18zM3HUMYN1Fc1aP-2" edge="1">
          <mxGeometry relative="1" as="geometry" />
        </mxCell>
        <mxCell id="reax18zM3HUMYN1Fc1aP-1" value="&lt;font style=&quot;font-size: 14px;&quot;&gt;เริ่มต้น&lt;/font&gt;" style="ellipse;whiteSpace=wrap;html=1;" parent="1" vertex="1">
          <mxGeometry x="-820" y="10" width="80" height="30" as="geometry" />
        </mxCell>
        <mxCell id="Bpo2pXbRXyXROc6AZWLJ-3" value="" style="edgeStyle=orthogonalEdgeStyle;rounded=0;orthogonalLoop=1;jettySize=auto;html=1;" parent="1" source="reax18zM3HUMYN1Fc1aP-2" target="Bpo2pXbRXyXROc6AZWLJ-2" edge="1">
          <mxGeometry relative="1" as="geometry" />
        </mxCell>
        <mxCell id="reax18zM3HUMYN1Fc1aP-2" value="&lt;font style=&quot;font-size: 14px;&quot;&gt;รับข้อมูล Dict &lt;br&gt;ของแต่ละหุ้น&lt;/font&gt;" style="whiteSpace=wrap;html=1;" parent="1" vertex="1">
          <mxGeometry x="-840" y="60" width="120" height="60" as="geometry" />
        </mxCell>
        <mxCell id="Bpo2pXbRXyXROc6AZWLJ-5" value="" style="edgeStyle=orthogonalEdgeStyle;rounded=0;orthogonalLoop=1;jettySize=auto;html=1;" parent="1" source="Bpo2pXbRXyXROc6AZWLJ-2" target="Bpo2pXbRXyXROc6AZWLJ-4" edge="1">
          <mxGeometry relative="1" as="geometry" />
        </mxCell>
        <mxCell id="Bpo2pXbRXyXROc6AZWLJ-2" value="ทำซ้ำทุกข้อมูลหุ้น" style="rhombus;whiteSpace=wrap;html=1;" parent="1" vertex="1">
          <mxGeometry x="-820" y="150" width="80" height="80" as="geometry" />
        </mxCell>
        <mxCell id="Bpo2pXbRXyXROc6AZWLJ-4" value="A" style="ellipse;whiteSpace=wrap;html=1;" parent="1" vertex="1">
          <mxGeometry x="-730" y="240" width="30" height="30" as="geometry" />
        </mxCell>
        <mxCell id="Bpo2pXbRXyXROc6AZWLJ-8" value="" style="edgeStyle=orthogonalEdgeStyle;rounded=0;orthogonalLoop=1;jettySize=auto;html=1;" parent="1" source="Bpo2pXbRXyXROc6AZWLJ-6" target="Bpo2pXbRXyXROc6AZWLJ-7" edge="1">
          <mxGeometry relative="1" as="geometry" />
        </mxCell>
        <mxCell id="Bpo2pXbRXyXROc6AZWLJ-6" value="A" style="ellipse;whiteSpace=wrap;html=1;" parent="1" vertex="1">
          <mxGeometry x="-570" y="10" width="30" height="30" as="geometry" />
        </mxCell>
        <mxCell id="Bpo2pXbRXyXROc6AZWLJ-10" value="" style="edgeStyle=orthogonalEdgeStyle;rounded=0;orthogonalLoop=1;jettySize=auto;html=1;" parent="1" source="Bpo2pXbRXyXROc6AZWLJ-7" target="Bpo2pXbRXyXROc6AZWLJ-9" edge="1">
          <mxGeometry relative="1" as="geometry" />
        </mxCell>
        <mxCell id="Bpo2pXbRXyXROc6AZWLJ-7" value="ดึงตารางข้อมูลของหุ้น" style="shape=parallelogram;perimeter=parallelogramPerimeter;whiteSpace=wrap;html=1;fixedSize=1;" parent="1" vertex="1">
          <mxGeometry x="-615" y="80" width="120" height="60" as="geometry" />
        </mxCell>
        <mxCell id="Bpo2pXbRXyXROc6AZWLJ-12" value="" style="edgeStyle=orthogonalEdgeStyle;rounded=0;orthogonalLoop=1;jettySize=auto;html=1;" parent="1" source="Bpo2pXbRXyXROc6AZWLJ-9" target="Bpo2pXbRXyXROc6AZWLJ-11" edge="1">
          <mxGeometry relative="1" as="geometry" />
        </mxCell>
        <mxCell id="Bpo2pXbRXyXROc6AZWLJ-9" value="ดึงตารางที่แรก ตั้ง index ใหม่" style="whiteSpace=wrap;html=1;" parent="1" vertex="1">
          <mxGeometry x="-615" y="180" width="120" height="60" as="geometry" />
        </mxCell>
        <mxCell id="Bpo2pXbRXyXROc6AZWLJ-11" value="ดึงตารางที่ 2 ตั้ง index ใหม่" style="whiteSpace=wrap;html=1;" parent="1" vertex="1">
          <mxGeometry x="-615" y="280" width="120" height="60" as="geometry" />
        </mxCell>
        <mxCell id="Bpo2pXbRXyXROc6AZWLJ-14" value="&amp;nbsp;prepare_df()" style="text;html=1;strokeColor=none;fillColor=none;align=center;verticalAlign=middle;whiteSpace=wrap;rounded=0;fontColor=#0000FF;" parent="1" vertex="1">
          <mxGeometry x="-530" y="10" width="60" height="30" as="geometry" />
        </mxCell>
        <mxCell id="JddpQWp5IYRVzItjy0Sk-1" value="B" style="ellipse;whiteSpace=wrap;html=1;" vertex="1" parent="1">
          <mxGeometry x="-850" y="240" width="30" height="30" as="geometry" />
        </mxCell>
        <mxCell id="JddpQWp5IYRVzItjy0Sk-8" value="" style="endArrow=classic;html=1;rounded=0;edgeStyle=orthogonalEdgeStyle;exitX=0;exitY=0.5;exitDx=0;exitDy=0;entryX=0.5;entryY=0;entryDx=0;entryDy=0;" edge="1" parent="1" source="Bpo2pXbRXyXROc6AZWLJ-2" target="JddpQWp5IYRVzItjy0Sk-1">
          <mxGeometry width="50" height="50" relative="1" as="geometry">
            <mxPoint x="-780" y="390" as="sourcePoint" />
            <mxPoint x="-730" y="340" as="targetPoint" />
          </mxGeometry>
        </mxCell>
        <mxCell id="JddpQWp5IYRVzItjy0Sk-11" value="" style="edgeStyle=orthogonalEdgeStyle;rounded=0;orthogonalLoop=1;jettySize=auto;html=1;" edge="1" parent="1" source="JddpQWp5IYRVzItjy0Sk-9" target="JddpQWp5IYRVzItjy0Sk-10">
          <mxGeometry relative="1" as="geometry" />
        </mxCell>
        <mxCell id="JddpQWp5IYRVzItjy0Sk-9" value="B" style="ellipse;whiteSpace=wrap;html=1;" vertex="1" parent="1">
          <mxGeometry x="-320" y="10" width="30" height="30" as="geometry" />
        </mxCell>
        <mxCell id="JddpQWp5IYRVzItjy0Sk-14" value="" style="edgeStyle=orthogonalEdgeStyle;rounded=0;orthogonalLoop=1;jettySize=auto;html=1;" edge="1" parent="1" source="JddpQWp5IYRVzItjy0Sk-10" target="JddpQWp5IYRVzItjy0Sk-13">
          <mxGeometry relative="1" as="geometry" />
        </mxCell>
        <mxCell id="JddpQWp5IYRVzItjy0Sk-10" value="ดึงตารางไหน" style="shape=parallelogram;perimeter=parallelogramPerimeter;whiteSpace=wrap;html=1;fixedSize=1;" vertex="1" parent="1">
          <mxGeometry x="-365" y="70" width="120" height="60" as="geometry" />
        </mxCell>
        <mxCell id="JddpQWp5IYRVzItjy0Sk-16" value="" style="edgeStyle=orthogonalEdgeStyle;rounded=0;orthogonalLoop=1;jettySize=auto;html=1;" edge="1" parent="1" source="JddpQWp5IYRVzItjy0Sk-13" target="JddpQWp5IYRVzItjy0Sk-15">
          <mxGeometry relative="1" as="geometry" />
        </mxCell>
        <mxCell id="JddpQWp5IYRVzItjy0Sk-13" value="ดึง Column ไหน" style="shape=parallelogram;perimeter=parallelogramPerimeter;whiteSpace=wrap;html=1;fixedSize=1;" vertex="1" parent="1">
          <mxGeometry x="-365" y="160" width="120" height="60" as="geometry" />
        </mxCell>
        <mxCell id="JddpQWp5IYRVzItjy0Sk-18" value="" style="edgeStyle=orthogonalEdgeStyle;rounded=0;orthogonalLoop=1;jettySize=auto;html=1;" edge="1" parent="1" source="JddpQWp5IYRVzItjy0Sk-15" target="JddpQWp5IYRVzItjy0Sk-17">
          <mxGeometry relative="1" as="geometry" />
        </mxCell>
        <mxCell id="JddpQWp5IYRVzItjy0Sk-15" value="ดึง Row ไหน" style="shape=parallelogram;perimeter=parallelogramPerimeter;whiteSpace=wrap;html=1;fixedSize=1;" vertex="1" parent="1">
          <mxGeometry x="-365" y="260" width="120" height="60" as="geometry" />
        </mxCell>
        <mxCell id="JddpQWp5IYRVzItjy0Sk-20" value="" style="edgeStyle=orthogonalEdgeStyle;rounded=0;orthogonalLoop=1;jettySize=auto;html=1;" edge="1" parent="1" source="JddpQWp5IYRVzItjy0Sk-17" target="JddpQWp5IYRVzItjy0Sk-19">
          <mxGeometry relative="1" as="geometry" />
        </mxCell>
        <mxCell id="JddpQWp5IYRVzItjy0Sk-17" value="ดึงทุกหุ้นใน Dict" style="rhombus;whiteSpace=wrap;html=1;" vertex="1" parent="1">
          <mxGeometry x="-345" y="340" width="80" height="80" as="geometry" />
        </mxCell>
        <mxCell id="JddpQWp5IYRVzItjy0Sk-19" value="ดึงข้อมูล/ แปลงเป็นตัวเลข ใส่ try except" style="whiteSpace=wrap;html=1;" vertex="1" parent="1">
          <mxGeometry x="-205" y="350" width="120" height="60" as="geometry" />
        </mxCell>
        <mxCell id="JddpQWp5IYRVzItjy0Sk-21" value="" style="endArrow=classic;html=1;rounded=0;edgeStyle=orthogonalEdgeStyle;entryX=0.5;entryY=1;entryDx=0;entryDy=0;exitX=0.5;exitY=1;exitDx=0;exitDy=0;" edge="1" parent="1" source="JddpQWp5IYRVzItjy0Sk-19" target="JddpQWp5IYRVzItjy0Sk-17">
          <mxGeometry width="50" height="50" relative="1" as="geometry">
            <mxPoint x="-150" y="420" as="sourcePoint" />
            <mxPoint x="-310" y="450" as="targetPoint" />
            <Array as="points">
              <mxPoint x="-150" y="410" />
              <mxPoint x="-150" y="480" />
              <mxPoint x="-305" y="480" />
            </Array>
          </mxGeometry>
        </mxCell>
      </root>
    </mxGraphModel>
  </diagram>
</mxfile>
